<svg version="1.1" xmlns="http://www.w3.org/2000/svg" xmlns:xlink="http://www.w3.org/1999/xlink" x="0px" y="0px" viewBox="0 0 200.1 201.4" enable-background="new 0 0 200.1 201.4" xml:space="preserve">
  <g id="guides"></g>
  <g id="Layer_2">
    <path fill="#000" d="M178.2,15.5C165.5,6.1,149.6,0,131.2,0H0v20h90v121l0,0c0,22-15.5,40.3-34.3,40.6 C35.8,181.3,20.3,163,20.3,141H0.2c0,32,23.8,59.8,55.8,60.4v0c0,0,0.3,0,0.5,0c0.2,0-0.5,0,0.5,0v0c29-0.6,52.5-27.4,53-59.4l0,0 v-31.9l21-0.3c18.4-0.4,34.5-5.8,47.1-15.2c14-10.4,21.9-23.9,21.9-39.8C200.1,39.9,192.1,25.8,178.2,15.5z M129,90L129,90h-19 V20.1l19,0.2c28.3,0,50.8,15.6,50.8,34.4C179.8,74.6,154.7,90,129,90z"></path>
  </g>
</svg>